# xmcd
#
# Track frame offsets: 
#        150
#        39312
#        58152
#        85160
#        116087
#        132642
#        157682
#        176360
#        194202
#        221277
#        249850
#        268295
#        293487
#        314365
#
# Disc length: 4441 seconds
#
# Revision: 2
# Processed by: cddbd v1.5.2PL0 Copyright (c) Steve Scherf et al.
# Submitted via: ExactAudioCopyFreeDBPlugin 1.0
#
DISCID=c811570e
DTITLE=Atlantis - Live
DYEAR=1975
DGENRE=Krautrock
TTITLE0=Friends
TTITLE1=Ooh Baby
TTITLE2=Somewhere
TTITLE3=It's Getting Better
TTITLE4=Waiting And Longing
TTITLE5=Brother
TTITLE6=Rock and Roll Preacher
TTITLE7=New York City
TTITLE8=Mr. Bigshot (You Get The Credit)
TTITLE9=Mainline Florida
TTITLE10=Godfather
TTITLE11=Going To The Country
TTITLE12=Rock Me Baby
TTITLE13=Leave It To The Devil
EXTD=YEAR: 1975
EXTT0=
EXTT1=
EXTT2=
EXTT3=
EXTT4=
EXTT5=
EXTT6=
EXTT7=
EXTT8=
EXTT9=
EXTT10=
EXTT11=
EXTT12=
EXTT13=
PLAYORDER=
